<?xml version="1.0" encoding="utf-8"?>
<!-- Generator: Adobe Illustrator 17.0.0, SVG Export Plug-In . SVG Version: 6.00 Build 0)  -->
<!DOCTYPE svg PUBLIC "-//W3C//DTD SVG 1.1//EN" "http://www.w3.org/Graphics/SVG/1.1/DTD/svg11.dtd">
<svg version="1.1" id="Capa_1" xmlns="http://www.w3.org/2000/svg" xmlns:xlink="http://www.w3.org/1999/xlink" x="0px" y="0px"
	 width="200px" height="150px" viewBox="293.593 564.895 200 150" enable-background="new 293.593 564.895 200 150"
	 xml:space="preserve">
<g transform="translate(0.000000,1280.000000) scale(0.100000,-0.100000)">
	<path fill="#F44336" d="M3837.742,7150.335c-147.815-8.561-321.072-36.474-381.369-61.571
		c-12.466-5.278-18.572-12.314-24.169-28.147c-8.141-23.221-11.194-42.337-19.336-116.574c-1.272-12.549-3.307-23.221-4.325-23.69
		c-1.272-0.469-56.48-13.604-122.883-29.32c-128.734-30.257-165.115-39.288-203.532-50.898
		c-90.572-27.326-125.681-55.473-141.709-113.525c-5.343-19.351-6.106-102.97-1.272-148.591
		c39.943-381.036,95.151-635.529,165.879-766.998c25.696-47.732,41.724-62.509,88.791-81.86
		c88.791-36.708,222.105-70.015,306.571-76.817c23.661-1.759,122.119-1.759,168.169,0.234
		c106.346,4.339,430.217,23.69,679.29,40.461c215.235,14.542,419.277,35.184,462.527,46.794
		c46.813,12.666,86.756,42.689,107.618,80.922c19.336,34.949,22.134,65.676,12.721,135.69
		c-29.767,220.014-102.784,648.899-132.551,776.615c-16.028,68.607-46.049,136.042-72.508,161.844
		c-13.738,13.604-48.593,28.146-92.353,38.584c-69.964,16.653-139.419,23.807-248.564,25.684
		c-74.798,1.407-93.116,2.463-110.162,6.802c-26.714,6.685-33.329,13.018-75.562,73.533
		c-50.883,72.478-106.091,100.038-218.798,109.068C3951.466,7150.804,3865.728,7151.859,3837.742,7150.335z M4017.105,7101.313
		c37.908-3.167,40.198-3.519,33.074-4.809c-4.071-0.821-26.459-5.043-49.611-9.5c-47.83-9.03-65.13-11.61-99.222-15.012
		c-93.625-9.265-221.85-11.141-288.762-4.104c-29.512,3.049-46.558,8.092-41.724,12.314c7.378,6.333,75.307,14.777,163.844,20.407
		c66.657,4.104,98.713,5.043,170.458,4.574C3970.801,7104.831,3979.706,7104.479,4017.105,7101.313z M4060.61,7063.315
		c12.212-4.926,26.459-18.882,45.54-44.331c40.961-55.003,66.402-108.717,53.682-113.643c-8.141-3.049-22.389,3.987-39.435,19.468
		c-23.915,22.048-41.469,48.788-45.795,70.015c-1.526,6.685-4.579,13.37-7.887,16.771c-9.922,10.555-34.601,19.351-48.085,17.357
		c-14.756-2.111-6.36-22.634,28.24-68.607c8.396-11.259,24.424-32.604,35.364-47.498c28.495-38.35,27.731-41.634-9.922-41.634
		c-11.958,0-21.88,0.704-27.477,1.876c-22.897,5.043-42.996,22.283-55.717,47.615c-5.343,10.907-11.448,37.06-11.448,50.195
		c-0.255,21.931-8.65,37.646-24.17,44.331c-10.177,4.339-14.502,4.691-21.371,1.524c-7.632-3.518-10.431-10.086-10.431-25.449
		c0-25.332,12.212-58.522,36.636-99.569c14.756-24.628,11.449-34.597-11.194-34.597c-21.625,0-46.303,14.66-54.445,32.251
		c-8.141,17.943-14.247,45.387-14.247,65.676c0,19.351-11.703,44.096-24.424,51.837c-12.975,7.857-24.169,7.74-31.548,0
		c-12.975-13.957-6.36-52.423,17.809-103.439c20.862-43.51,21.625-56.411,3.562-60.281c-9.922-1.994-36.381-1.524-48.084,0.938
		c-32.565,6.919-41.724,22.166-50.883,83.385c-6.106,42.22-15.519,67.435-30.53,80.805c-12.466,11.376-22.134,5.395-26.968-16.888
		c-2.29-11.142-2.29-21.462,0.254-49.96c5.088-55.472,1.527-74.354-15.519-82.329c-6.36-2.814-8.905-3.284-15.519-2.697
		c-10.94,0.938-15.774,3.284-22.389,10.438c-12.975,13.722-18.827,37.412-21.625,86.434c-1.527,28.029-3.562,39.875-6.36,39.875
		c-2.544,0-5.597-5.629-20.353-37.646c-14.756-32.017-22.897-45.855-32.565-55.003c-12.721-11.845-22.134-8.209-28.749,11.141
		c-1.781,4.809-3.307,33.424-4.071,68.959l-1.272,60.633h66.911c232.536,0.234,344.988,5.629,417.496,20.406
		C4036.695,7068.358,4047.38,7068.709,4060.61,7063.315z M4395.421,6925.63c76.833-3.518,151.123-11.493,194.119-20.875
		c30.784-6.685,42.487-12.783,63.858-32.955c41.47-39.522,52.409-66.731,74.798-186.472
		c29.258-158.208,56.735-373.882,86.501-679.04c9.668-99.687,9.413-131-1.526-158.325c-19.336-47.615-68.692-67.904-202.261-83.15
		c-62.586-7.154-114.232-11.142-447.517-34.128c-479.319-33.19-596.604-37.764-679.29-26.622
		c-79.378,10.79-168.423,37.646-231.01,69.897c-37.908,19.468-60.296,37.646-70.473,57.114
		c-60.297,116.692-179.109,764.652-159.264,869.499c17.555,92.18,74.798,123.142,306.825,165.948
		c54.445,10.086,70.982,12.197,96.678,12.08c27.986,0,41.979-2.111,105.583-16.185c65.13-14.425,75.816-16.536,115.759-22.752
		c53.682-8.327,86.756-11.493,154.939-15.011c9.922-0.586,18.064-1.525,18.573-2.346c3.053-4.105-55.208-12.783-204.041-30.258
		c-94.134-11.141-116.014-13.956-159.01-20.406c-129.243-19.703-173.257-42.22-189.794-97.458
		c-6.106-20.055-7.124-69.077-2.544-119.624c4.579-50.195,19.081-183.892,26.968-249.802
		c38.162-316.181,75.307-445.656,146.798-511.801c17.3-16.067,30.275-24.746,72-47.967c28.24-15.715,34.346-18.53,38.926-17.943
		c8.141,0.938,512.393,39.405,615.431,47.028c48.593,3.519,132.805,9.382,186.996,12.901
		c244.493,16.067,326.669,25.684,359.235,41.985c6.36,3.284,13.738,13.839,11.194,16.653c-2.036,2.58-11.958,2.111-25.951-1.173
		c-6.869-1.524-25.95-4.457-42.487-6.333c-176.819-20.523-934.723-76.583-1076.432-79.514c-33.583-0.704-33.583-0.704-42.488,2.463
		c-91.081,32.017-175.292,278.652-206.331,603.512c-9.413,101.094-13.993,210.279-10.94,265.634
		c4.325,81.274,27.986,108.248,105.328,121.266c29.512,4.926,373.482,38.35,568.365,55.238
		c147.815,12.783,240.677,19.703,482.117,36.356c169.441,11.61,171.73,11.728,120.848,11.141
		c-149.342-1.994-301.737-3.167-361.27-2.58c-74.798,0.586-87.519,1.407-92.353,6.333c-3.053,3.049-1.526,4.339,21.88,17.709
		c19.59,11.142,34.092,23.69,38.417,33.307c4.834,10.203,5.852,11.024,15.011,13.018c15.519,3.401,31.293,4.691,64.113,5.395
		C4322.149,6928.21,4347.082,6927.859,4395.421,6925.63z"/>
	<path fill="#F44336" d="M4370.743,6687.556c-149.597-7.74-200.479-15.246-219.052-32.838c-5.852-5.512-6.869-7.975-6.615-16.067
		c0.254-26.153,31.039-59.343,57.498-62.509c10.177-1.173,20.099,0.821,22.897,4.457c2.036,2.58,1.272,4.457-3.562,9.148
		c-10.431,10.32-1.018,14.308,37.145,15.598c41.47,1.407,106.854,10.203,157.483,21.345c26.459,5.747,44.522,11.61,44.522,14.542
		c0,5.043-40.452,3.987-82.685-2.346c-50.628-7.388-73.78-9.382-103.038-8.913c-30.785,0.586-45.795,2.697-58.007,8.092
		c-13.993,6.333-15.52,13.956-3.816,18.882c8.905,3.635,33.329,6.685,62.586,7.975c56.734,2.346,111.943,8.679,145.017,16.536
		c10.686,2.581,19.59,5.161,19.59,5.629C4440.707,6689.902,4417.81,6690.019,4370.743,6687.556z"/>
	<path fill="#F44336" d="M3853.007,6661.755c-100.749-5.981-202.26-23.338-246.783-42.22
		c-32.056-13.722-24.424-23.573,21.625-28.499c7.124-0.704,30.784-1.994,52.918-2.815c53.173-2.111,57.752-3.987,21.88-9.03
		c-43.759-6.099-63.604-19.233-43.25-28.616c6.869-3.167,9.922-3.636,25.441-3.988c33.583-0.938,65.385,6.451,80.141,18.53
		c7.124,5.747,7.887,7.388,7.632,15.833c-0.254,11.376-6.615,20.523-20.862,29.202c-21.116,12.9-23.406,18.295-9.668,23.925
		c16.282,6.567,79.123,15.246,98.968,13.604c13.484-1.056,27.477-7.037,35.873-15.598c3.562-3.752,12.467-16.771,19.336-28.85
		c12.466-21.579,17.046-27.326,24.933-31.313c6.361-3.401,10.686-2.462,16.283,3.519c13.484,14.073,40.707,28.616,78.36,41.868
		c77.851,27.443,72.763,40.344-17.809,45.152C3967.748,6664.101,3885.063,6663.631,3853.007,6661.755z M4002.603,6646.509
		c3.053-0.938,5.597-2.697,5.597-3.987c0-5.395-33.074-17.592-47.83-17.592c-22.389,0-20.099,18.178,2.799,22.986
		C3972.837,6649.91,3993.699,6649.207,4002.603,6646.509z"/>
	<path fill="#F44336" d="M4528.48,6579.778c-33.583-2.815-90.317-7.506-125.936-10.438c-76.325-6.215-277.822-22.752-339.645-27.795
		c-23.661-1.876-94.643-7.74-157.738-12.9c-62.841-5.16-163.08-13.37-222.614-18.178c-59.533-4.808-129.752-10.555-155.957-12.783
		c-26.459-2.111-48.594-4.104-49.102-4.457c-1.018-0.469,15.01-42.689,80.395-212.508c9.668-25.097,26.968-70.015,38.417-99.686
		c11.194-29.671,20.862-54.065,21.117-54.3c0.509-0.117,6.869,0.352,14.502,0.938c13.738,1.173,43.505,3.635,256.705,21.11
		c63.604,5.16,160.536,13.135,214.981,17.592c54.699,4.457,118.812,9.734,142.473,11.61c23.915,1.994,94.897,7.74,157.737,12.901
		c63.095,5.16,134.077,11.024,157.738,12.9c142.218,11.61,172.494,14.19,173.257,14.542c0.509,0.234-5.343,16.419-12.975,36.122
		c-7.378,19.585-25.696,67.083-40.452,105.433c-14.756,38.35-39.943,104.143-56.226,146.128
		c-16.028,41.986-29.258,76.935-29.258,77.755C4595.9,6585.407,4599.462,6585.642,4528.48,6579.778z"/>
	<path fill="#F44336" d="M4464.876,6160.861c-113.724-6.919-692.774-61.571-782.328-73.768c-21.371-2.932-21.371-2.815-19.59-15.715
		c2.544-19.703,15.774-38.819,32.311-47.029c8.65-4.222,13.484-4.222,38.926,0c38.926,6.333,138.911,12.197,369.412,21.814
		c273.751,11.376,390.019,18.53,423.347,26.036c34.346,7.857,31.548,50.43-5.088,76.465
		C4506.601,6159.454,4492.099,6162.503,4464.876,6160.861z M4450.629,6139.516c12.721-2.932,22.389-9.03,29.512-18.413
		c22.389-29.319-11.958-38.584-173.002-46.676c-19.59-1.056-87.01-3.636-150.105-5.981
		c-199.716-7.154-315.476-13.252-370.938-19.351c-11.449-1.29-28.495-2.346-37.654-2.346c-14.502,0-17.809,0.352-23.152,2.932
		c-16.792,7.624-11.194,24.746,10.177,31.431c11.703,3.753,35.364,6.685,53.936,6.685c62.332,0,342.952,24.042,540.633,46.442
		C4413.23,6143.621,4430.785,6144.325,4450.629,6139.516z"/>
</g>
</svg>
