<?xml version="1.0" encoding="utf-8"?>
<!-- Generator: Adobe Illustrator 17.0.0, SVG Export Plug-In . SVG Version: 6.00 Build 0)  -->
<!DOCTYPE svg PUBLIC "-//W3C//DTD SVG 1.1//EN" "http://www.w3.org/Graphics/SVG/1.1/DTD/svg11.dtd">
<svg version="1.1" id="Capa_1" xmlns="http://www.w3.org/2000/svg" xmlns:xlink="http://www.w3.org/1999/xlink" x="0px" y="0px"
	 width="200px" height="150px" viewBox="219.992 564.926 200 150" enable-background="new 219.992 564.926 200 150"
	 xml:space="preserve">
<g transform="translate(0.000000,1280.000000) scale(0.100000,-0.100000)">
	<path d="M2981.19,7148.042c-77.852-7.62-155.705-26.257-148.659-35.752c4.932-7.15,49.67-24.499,73.625-28.602
		c5.636-0.938,23.955-3.165,40.864-4.806c33.818-3.517,31.704-2.696,38.045-15.708c3.523-6.916,3.17-12.777-1.761-31.649
		c-5.284-20.982-5.636-23.561-0.705-28.25c3.171-2.931,4.932-5.626,4.227-5.978c-1.057-0.469-43.33-1.172-94.057-1.524
		c-95.466-0.704-134.216-2.11-144.08-5.041c-6.341-1.993-10.568-9.143-21.136-37.041c-4.58-11.488-8.807-21.334-10.216-21.92
		c-1.057-0.586-17.614-2.228-36.636-3.517c-36.636-2.462-57.068-5.861-67.636-11.371c-4.932-2.461-6.341-6.916-7.75-23.795
		c-1.761-22.389,2.466-38.682,12.682-50.052c5.636-6.33,7.398-7.15,21.841-9.495c8.807-1.407,32.409-4.103,52.841-5.861
		l36.989-3.399l-0.352-22.154c-0.352-16.645-1.761-24.147-6.341-29.656c-7.045-9.377-7.045-10.081,1.057-15.942
		c3.523-2.696,9.159-7.736,12.682-11.37c5.989-6.447,5.989-6.564-2.114-11.722c-7.398-4.455-8.455-6.682-8.102-17.466
		c0.352-14.066,8.102-26.022,20.08-30.243c4.227-1.524,14.795-3.985,23.25-5.275c21.489-3.517,23.955-5.275,15.852-10.901
		c-5.636-3.868-11.273-5.392-38.75-9.846c-17.614-2.931-36.636-6.212-41.92-7.385c-15.852-3.634-112.727-14.77-149.011-17.349
		c-51.432-3.399-92.295-7.619-130.341-13.246c-18.67-2.696-38.75-5.392-44.386-5.861c-17.614-1.407-56.364-9.612-71.511-15.121
		c-18.67-6.682-47.205-26.492-49.67-34.228c-0.705-3.165-4.58-7.268-8.455-9.026c-19.727-9.377-31.705-35.049-41.568-88.266
		c-4.227-23.561,1.409-88.969,10.568-126.597c11.625-46.536,14.795-86.742,13.034-169.967c-1.057-56.617-3.17-85.687-7.398-104.325
		c-3.523-15.239-7.046-53.804-9.159-94.361c-1.761-37.745-4.932-76.192-6.693-85.57c-4.932-24.968-11.977-139.139-10.216-162.935
		c1.409-16.176,3.523-22.624,9.511-30.594c14.091-18.052,26.068-22.389,83.136-29.773c64.818-8.323,65.523-8.44,248.352-8.088
		c100.045,0.117,172.614,0.704,186.705,1.524c33.114,1.875,172.261,1.524,234.261-0.469c29.239-0.938,86.307-2.344,126.818-2.931
		c40.864-0.703,94.761-1.758,119.773-2.344c89.125-2.11,193.75-2.696,231.443-1.29c20.08,0.704,67.989,1.524,106.739,1.875
		c38.75,0.352,74.329,0.821,79.261,1.172c26.773,1.641,79.614,3.985,105.682,4.688c33.466,0.938,59.886,2.345,132.102,7.502
		c54.602,3.868,78.205,6.447,97.227,10.432c7.045,1.407,14.795,2.579,17.614,2.579c2.466,0,15.148,2.11,27.83,4.571
		c13.034,2.579,35.932,6.33,51.079,8.323c14.796,1.993,32.409,4.454,38.398,5.509c17.614,2.93,40.511,9.612,46.852,13.597
		c3.17,2.11,9.512,5.275,14.091,7.15c8.455,3.282,8.807,3.985,6.341,14.066c-1.057,5.861-3.875,13.832-5.284,17.7
		c-15.5,34.111-15.853,37.158-14.795,134.802c0.352,51.576,2.466,114.406,4.227,139.491c1.761,25.202,4.932,78.419,7.045,118.391
		c7.045,142.772,11.625,178.524,30.295,240.299c15.148,49.818,17.966,70.8,12.33,95.182c-6.341,27.43-11.977,38.213-28.534,53.687
		c-27.477,25.788-53.193,42.199-96.875,61.306c-53.193,23.444-85.955,33.056-131.75,38.682
		c-22.898,2.696-100.75,5.158-180.011,5.509c-95.818,0.469-111.318,1.407-132.102,8.088c-14.795,4.689-15.148,5.041-17.614,14.418
		c-3.523,13.715,6.693,23.092,36.989,33.876c9.864,3.399,18.67,7.854,20.784,10.55c17.261,20.279,0,34.228-55.659,44.777
		c-34.17,6.447-35.58,7.854-39.807,37.51c-3.523,25.319-1.761,41.847,4.932,44.426c2.114,0.938,11.977,1.523,26.42,1.523
		c26.068,0,51.784,1.875,57.773,4.22c9.159,3.634,5.989,41.378-5.636,72.559c-1.409,3.282-2.818,8.674-3.523,12.073
		c-1.409,7.502-3.875,8.557-33.818,15.004l-23.25,4.923l-8.102,11.488c-8.455,12.425-23.602,26.374-36.284,33.759
		c-16.909,9.964-49.67,12.191-187.409,13.011c-46.5,0.352-83.841,0.938-83.136,1.407c0.705,0.586,5.636,1.875,11.273,2.931
		l9.864,1.993l-2.114,19.106c-2.114,20.748,1.761,31.649,12.33,33.642c3.523,0.703,32.761,0.82,69.398,0.469
		c50.023-0.469,69.75-0.234,93.352,1.29c16.557,0.938,48.261,2.344,70.455,3.047c40.159,1.172,122.943,4.455,244.83,9.964
		c34.875,1.524,71.511,3.048,81.023,3.517c29.591,1.172,78.557-1.29,96.875-5.041c19.727-4.103,45.091-14.418,59.886-24.616
		c6.341-4.337,12.33-8.674,14.091-9.612c4.227-2.93,16.909-2.696,29.591,0.586c14.795,3.751,48.261,17.231,56.716,22.857
		c3.523,2.227,10.92,5.744,16.205,7.619c21.841,7.502,45.795,17.7,47.557,20.162c1.409,1.758-1.409,4.572-7.397,8.206
		c-12.682,7.268-66.58,24.733-84.545,27.429c-7.75,1.055-37.693,3.751-66.227,5.861l-52.489,3.751l-53.193-1.406
		c-29.591-0.821-73.273-2.462-97.58-3.751c-52.841-2.696-96.171-2.931-102.864-0.586c-3.875,1.172-22.193,1.641-80.67,1.993
		c-79.261,0.352-285.693-1.758-291.682-2.93c-6.693-1.407-78.909,1.641-122.239,5.158c-23.25,1.875-59.886,5.274-81.023,7.502
		c-55.307,5.861-109.205,10.081-127.875,9.963C3015.36,7150.62,2995.985,7149.448,2981.19,7148.042z M3092.86,7126.356
		c57.068-7.619,70.102-8.557,230.386-16.528c101.102-4.923,152.534-6.33,211.364-5.392c28.182,0.469,82.08,1.289,119.773,1.875
		c82.784,1.289,149.716,2.696,247.648,5.392c87.011,2.344,117.659,1.523,152.534-4.22c30.295-4.923,51.784-14.77,43.682-20.044
		c-3.875-2.227-20.784-5.744-28.182-5.744c-2.114,0-11.273,2.344-20.784,5.275c-24.307,7.502-39.807,8.206-192.341,8.206
		c-122.591,0-123.648,0-193.75-3.869c-71.864-3.868-171.909-7.268-213.125-7.268c-12.682,0-45.795-0.82-73.273-1.875
		c-47.205-1.875-53.898-1.875-98.636,0c-26.773,1.055-56.011,1.875-65.171,1.875c-16.205,0-17.261-0.234-22.193-4.22
		c-5.989-4.806-7.045-19.693-3.17-39.151c2.818-14.301,1.761-15.004-25.716-16.528c-9.159-0.586-31.704-1.993-50.023-3.282
		c-39.102-2.813-60.943-3.048-66.58-0.821c-2.818,1.172-2.466,6.564,1.409,21.217c7.75,27.664,4.58,32.235-27.477,42.433
		c-23.602,7.619-47.557,13.128-82.432,18.99c-23.25,3.868-34.523,7.854-30.648,11.019c2.466,2.344,20.08,6.798,39.807,10.198
		c18.67,3.048,74.682,8.088,91.943,8.088C3044.599,7132.1,3069.258,7129.521,3092.86,7126.356z M3499.031,6977.957
		c22.545-3.868,39.455-13.714,48.614-28.484c4.58-7.385,4.58-8.909,0.705-10.198c-5.284-1.641-51.08-4.455-103.568-6.447
		c-51.784-1.875-264.557-3.868-419.205-3.868c-141.614-0.117-234.261,1.407-248.352,3.868c-8.455,1.524-9.159,3.868-2.114,5.861
		c3.875,0.938,4.227,2.11,1.761,4.22c-5.284,4.806-3.875,17.817,2.466,22.271c9.159,6.33,20.432,8.206,59.182,9.846
		c37.341,1.641,104.977,1.172,199.386-1.406c44.034-1.172,58.83-1.055,107.443,0.703c149.364,5.509,193.045,6.447,268.784,5.978
		C3470.849,6979.832,3491.281,6979.363,3499.031,6977.957z M3599.428,6913.369c1.057-1.055,2.114-3.634,2.114-5.744
		c0-2.11,4.932-10.198,10.92-18.052l10.92-14.066l-8.807-6.213c-4.932-3.399-9.511-7.15-10.568-8.205
		c-4.227-4.22-19.727-6.096-49.67-6.213h-28.182l-4.58,6.447c-2.818,4.22-4.227,13.714-3.523,27.546l0.705,21.1l8.807,0.82
		c9.159,0.821,58.829,4.103,65.523,4.337C3595.553,6915.245,3598.372,6914.424,3599.428,6913.369z M3476.838,6908.446
		c2.466-0.469,4.932-8.909,6.693-21.92c4.227-31.415,4.227-31.297-1.761-32.235c-9.864-1.758-116.955-4.923-120.83-3.634
		c-6.693,2.227-10.568,13.246-10.216,27.078c0.705,19.927,3.17,25.554,12.682,27.546
		C3375.735,6907.977,3467.678,6910.556,3476.838,6908.446z M3311.622,6901.999c3.17-0.586,4.227-5.978,4.227-17.583
		c0-11.605,1.409-18.638,5.284-23.444c7.75-9.26,7.045-11.253-3.171-12.542c-10.216-1.29-156.761-3.985-159.932-2.931
		c-1.057,0.469-3.17,7.15-4.579,15.004c-1.057,7.854-3.171,19.81-4.58,26.609c-3.875,17.583-8.807,16.528,84.193,16.059
		C3273.928,6902.937,3309.508,6902.468,3311.622,6901.999z M2783.917,6901.295c5.284-1.172,7.398-7.619,13.034-41.847
		c2.114-12.308,1.761-14.301-3.17-14.887c-5.989-0.821-107.443,2.227-124,3.634c-5.989,0.586-12.33,2.227-14.795,3.985
		c-5.284,3.517-10.216,33.759-6.693,40.089c1.761,3.165,4.932,4.571,11.625,5.509c7.398,0.938,73.273,3.517,113.784,4.454
		C2776.519,6902.233,2781.099,6901.881,2783.917,6901.295z M3100.258,6899.771c10.216-5.744,20.08-50.873,11.625-54.272
		c-3.523-1.407-14.091-1.758-47.909-1.758c-46.852,0-58.83,0.821-64.818,4.806c-2.466,1.407-5.636,8.439-7.398,15.59
		c-1.761,7.15-5.989,17.935-9.159,23.913c-5.284,9.495-5.284,11.136-0.704,12.073
		C2989.997,6901.764,3096.735,6901.53,3100.258,6899.771z M2938.917,6897.193c4.579-3.751,14.443-32.939,14.443-41.73
		c0-11.839,0.352-11.722-54.25-11.722c-38.398,0-47.909,0.352-51.432,1.875c-2.818,0.938-5.989,6.096-7.398,11.37
		c-1.761,5.275-4.58,12.308-6.341,15.473c-7.046,12.074-3.523,24.264,7.75,26.609c2.466,0.469,24.307,0.938,49.318,0.938
		C2935.042,6900.006,2936.099,6900.006,2938.917,6897.193z M3449.713,6801.894c33.466-5.626,37.693-7.971,44.034-24.733
		c2.818-8.088,7.75-14.887,12.33-18.169c9.511-6.682,32.761-15.473,50.023-18.99c12.682-2.813,13.034-2.813,14.443-11.722
		l1.057-9.026l-13.034-4.455c-7.398-2.461-13.386-5.392-13.386-6.564c0-1.29-4.58-3.986-10.216-6.213
		c-9.159-3.634-10.568-5.158-12.682-14.652c-2.818-12.894,0.705-19.341,17.966-33.056c19.375-15.942,41.921-26.96,60.943-30.243
		c12.329-2.227,53.193-4.571,164.159-9.495c113.432-5.158,171.557-8.322,187.057-10.55
		c78.205-10.901,149.012-70.566,175.784-148.868c7.045-20.279,6.341-25.202-15.852-93.775c-7.75-24.03-12.33-38.096-17.614-55.679
		c-2.114-6.212-5.284-30.125-7.045-53.334c-2.114-23.209-4.932-50.404-6.693-60.368c-1.761-9.964-3.17-40.324-3.523-67.401
		c-0.352-118.743-3.875-166.217-16.557-222.13c-2.818-12.542-6.693-44.191-8.807-70.331c-4.227-61.423-6.341-69.277-20.784-79.475
		c-15.148-10.667-31.705-17.583-75.739-31.063c-26.421-8.088-39.807-11.37-46.148-11.37c-4.579,0-14.795-1.055-22.193-2.345
		c-18.67-3.047-64.114-5.978-194.102-12.19c-119.42-5.744-180.716-8.206-250.114-10.081c-24.307-0.703-72.568-1.993-107.443-2.931
		c-91.239-2.579-256.455-4.454-310.705-3.634c-58.477,0.938-93.352,2.345-149.011,6.096c-25.011,1.758-67.636,3.399-98.636,4.103
		c-29.943,0.586-72.92,1.875-95.114,2.813c-23.25,1.055-85.25,2.11-146.193,2.461l-105.682,0.703l-32.057,4.572
		c-67.284,9.729-125.057,23.913-129.989,32.118c-1.057,1.993-3.875,5.392-6.341,7.62c-6.693,6.447-3.875,97.409,2.818,99.167
		c2.818,0.704,15.852,1.407,28.534,1.407c17.261,0.117,25.364,0.703,30.296,2.227c5.989,1.758,13.386,2.11,46.5,1.993
		c21.489-0.117,66.932-1.172,100.75-2.227c56.011-1.875,106.386-2.344,345.227-3.282c76.795-0.234,259.625,2.696,285.341,4.572
		c21.136,1.524,48.614,1.993,137.386,2.11l110.966,0.117l63.409,4.572c34.875,2.461,69.398,5.509,76.443,6.681
		c10.568,1.875,21.136,2.227,56.716,2.227c50.727,0,51.08,0.117,60.591,11.136c3.17,3.868,10.568,10.667,16.205,15.238
		c15.852,12.308,17.966,16.645,29.239,58.023c16.557,61.188,21.489,103.387,21.489,186.964c0,73.379-2.466,95.182-13.739,128.354
		c-7.046,19.81-11.977,42.316-16.205,73.848c-2.114,14.535-5.284,29.539-7.398,33.407c-6.341,11.839-7.75,46.653-3.171,73.848
		c8.102,50.99,9.511,71.035,4.932,89.204c-3.523,15.59-4.932,18.169-12.33,21.568l-8.455,3.868l-89.829-0.703
		c-81.375-0.704-100.046-1.29-197.273-5.979c-182.83-8.908-183.182-8.908-350.511-8.908c-373.409-0.235-610.841,0.586-615.068,1.993
		c-3.523,1.172-2.818,2.696,3.523,7.15c6.341,4.454,7.75,6.798,5.636,10.549c-2.818,5.626,1.761,9.026,22.898,16.997
		c19.375,7.268,53.898,15.473,81.727,19.106c11.977,1.758,67.284,8.323,122.239,14.652
		c118.011,13.715,128.932,15.239,172.966,25.085c39.807,8.792,70.807,18.638,81.375,26.022c17.261,11.839,0,30.829-35.58,39.034
		c-9.864,2.227-20.432,5.509-23.25,7.385c-5.989,3.634-5.284,4.337,16.557,14.535c17.614,8.44,28.886,20.162,26.068,26.96
		c-1.057,2.696-0.704,5.158,1.409,5.509c1.761,0.469,2.466,5.158,1.409,11.722c-1.761,9.729-1.409,11.136,4.579,12.894
		c47.557,13.715,62.352,15.942,122.943,18.286c58.477,2.345,105.33,3.634,167.33,4.689c103.216,1.758,187.409,3.634,209.602,4.689
		c11.625,0.586,33.818,0.82,49.318,0.586C3419.417,6806.465,3426.815,6805.762,3449.713,6801.894z M3519.815,6522.443
		c14.091-1.641,19.727-6.447,26.773-22.74c11.273-26.726,13.739-42.785,11.273-73.262c-1.761-22.272-1.057-36.69,3.17-56.852
		c18.318-88.969,19.727-93.892,37.341-129.175c9.159-18.403,10.921-25.554,11.625-43.136c0.705-35.4-2.114-70.449-7.398-92.603
		c-2.466-11.605-5.636-38.8-6.341-60.368c-1.761-51.928-13.034-99.636-30.295-130.699c-8.807-16.176-17.261-22.154-34.523-25.202
		c-31.352-5.275-138.443-9.378-274.068-10.433c-93-0.704-107.443-1.055-113.08-2.813c-5.989-1.758-9.864-1.875-34.523-0.703
		c-31,1.407-82.432,0.703-145.841-1.993c-22.193-0.938-63.409-2.227-91.591-2.813c-28.182-0.586-72.568-1.641-98.636-2.344
		c-66.58-1.875-340.296-1.875-369.886,0c-49.67,3.048-81.023,1.524-108.5-5.392c-6.341-1.641-12.682-2.813-13.739-2.461
		c-1.057,0.352-2.114,6.33-2.818,13.363c-0.705,6.916-2.818,14.066-4.932,15.825c-4.932,4.22,0.705,5.275,11.977,2.227
		c13.739-3.517,48.261-4.337,87.364-1.875c32.057,1.993,33.114,1.875,67.636-0.704c37.341-2.696,84.545-3.634,262.091-5.274
		c64.466-0.586,97.58-0.352,119.068,0.703c16.557,0.82,71.159,1.524,125.409,1.641c97.58,0.234,189.171,2.93,244.83,7.268
		c12.329,0.82,28.886,1.641,36.989,1.641s20.432,0.586,27.125,1.172c6.693,0.704,27.477,1.758,45.795,2.345
		c18.318,0.703,39.807,1.993,47.557,2.813c7.75,0.938,20.432,1.993,28.182,2.345c20.784,0.938,79.261,7.385,92.295,9.963
		c14.091,2.931,34.17,16.411,41.216,27.664c7.045,11.722,9.511,22.037,13.034,55.679c3.523,37.275,8.455,69.979,14.091,94.361
		c2.466,11.019,3.17,28.367,2.114,42.199c-1.057,12.894-2.818,40.91-3.875,62.126c-2.818,58.023-5.284,69.394-20.08,97.878
		c-2.114,4.22-4.579,15.59-4.932,25.202c-1.057,17.231-8.102,31.532-19.727,41.027c-2.466,1.993-4.58,5.861-4.932,8.791
		c-1.409,10.081-5.989,18.286-15.852,28.719c-13.034,13.832-15.5,25.788-10.568,56.851c4.932,31.298,1.761,43.723-11.977,47.708
		c-14.443,4.103-36.636,4.571-79.261,1.524c-40.864-3.048-76.091-3.282-192.341-1.524c-33.114,0.586-76.796,0.586-96.875,0
		c-20.432-0.469-109.205-1.172-197.273-1.407s-171.205-0.938-184.943-1.524c-52.841-2.579-120.83-2.931-186.705-0.82
		c-34.875,1.172-88.773,2.11-119.773,2.227l-56.364,0.117l0.704,3.517c1.761,8.439,4.932,11.136,13.739,11.839
		c4.58,0.352,35.58,0.117,68.693-0.703c48.966-1.29,76.091-1.29,144.784,0c61.648,1.172,122.239,1.29,225.807,0.586
		c325.148-2.11,491.773-1.641,544.966,1.641c10.568,0.704,44.739,2.11,75.739,3.165c31,0.938,63.409,2.227,72.216,2.696
		C3504.667,6523.85,3507.838,6523.85,3519.815,6522.443z M3232.36,6487.278c87.716-1.29,100.398-1.29,127.523,0.469
		c40.159,2.696,60.943,2.579,63.409,0c1.057-1.172-0.352-13.128-2.818-26.726c-5.284-26.726-2.818-39.737,12.33-61.54
		c3.523-5.509,8.102-13.949,9.864-18.755c2.114-4.806,8.455-16.411,14.443-25.788c8.807-13.128,11.977-21.686,14.091-37.51
		c1.761-11.253,5.636-26.257,8.455-33.408c3.523-7.854,7.045-30.359,9.159-57.437c2.114-24.499,5.284-59.079,7.398-76.779
		c3.523-27.546,3.17-35.283-1.761-53.1c-3.17-11.487-5.636-26.491-5.636-33.407s-1.409-20.982-3.523-31.297
		c-1.761-10.315-4.932-29.54-7.045-42.785c-4.932-29.773-12.682-46.184-27.477-55.796c-11.977-7.854-19.023-9.377-67.636-14.301
		c-47.205-4.806-199.739-13.363-294.148-16.645c-21.489-0.703-49.318-1.758-62-2.344c-14.795-0.703-36.989-0.703-61.648,0
		c-30.295,0.938-64.466,0.703-158.875-1.055c-66.227-1.172-122.239-2.579-124.352-3.047c-1.761-0.352-14.443,0.117-27.477,1.055
		c-15.148,1.172-54.602,2.11-110.261,2.813c-62.705,0.586-88.42,1.29-92.295,2.461c-4.227,1.172-15.5,1.29-47.205,0.821
		c-65.171-1.172-78.557-1.172-107.796-0.117l-27.477,0.938l2.114,43.488c2.818,52.749,5.989,77.248,17.261,133.747
		c14.443,69.511,21.489,125.19,21.136,162.348c-0.352,55.093-4.227,104.208-8.455,113.116c-2.114,4.572-4.58,17.466-5.989,28.719
		c-1.761,18.169-1.409,20.748,3.875,22.154c4.227,1.172,5.636,3.634,5.636,10.315c0,4.806,2.466,12.074,5.636,16.059
		c3.523,4.22,5.989,12.542,6.341,20.63c0.352,7.385,2.114,14.301,3.875,15.238c1.761,0.938,3.523,4.22,3.875,7.385
		c0.352,3.165,1.409,5.861,2.114,6.212c1.057,0.234,25.364,0.703,54.25,1.055c37.693,0.469,75.739,0,135.625-1.758l83.136-2.345
		l50.727,2.462c45.795,2.227,68.341,2.461,226.864,2.696c156.409,0.234,177.546,0.469,188.466,2.11
		c9.511,1.524,19.023,1.875,40.511,1.524C3122.099,6488.802,3178.815,6487.981,3232.36,6487.278z"/>
	<path d="M2934.337,6455.629c-20.08-1.641-46.5-6.682-51.432-9.964c-6.341-3.751-2.466-18.638,7.045-29.07
		c15.5-16.411,64.818-49.349,104.625-69.394c22.546-11.487,52.136-30.008,64.466-40.323c19.727-16.645,75.739-49.583,94.057-55.21
		c13.739-4.337,22.193-4.923,36.284-2.344c11.977,2.11,12.33,2.461,12.682,9.026c0.352,6.916,7.398,26.022,17.614,47.356
		c5.989,12.074,40.159,47.825,58.829,61.423c6.693,4.689,20.08,12.425,30.296,17.349c9.864,4.923,22.898,12.542,28.886,16.879
		c10.216,7.502,10.92,8.792,9.159,17.114c-2.114,11.253-11.273,17.935-33.466,24.499c-27.83,8.205-49.318,10.901-92.648,11.37
		c-32.057,0.469-39.102,0.117-51.432-1.875c-20.08-3.517-50.023-11.604-54.602-15.004c-2.114-1.524-5.636-2.813-7.75-2.813
		c-2.114,0-14.796,3.868-28.534,8.674c-20.784,7.268-27.83,9.026-44.034,10.667
		C3011.485,6456.332,2953.712,6457.27,2934.337,6455.629z M3231.656,6432.419c7.046-4.455,3.875-14.066-9.159-27.429
		c-29.591-30.243-38.045-38.213-51.08-47.239c-14.443-10.198-45.443-22.741-56.011-22.741c-6.341,0-72.568,30.711-88.068,41.027
		c-4.58,2.93-16.205,9.495-26.42,14.652c-19.023,9.612-34.523,21.334-38.75,28.953c-5.284,9.143,25.364,12.073,48.614,4.806
		c13.034-4.22,27.83-13.949,37.693-24.967c13.739-15.122,39.102-28.367,53.898-28.016c9.159,0.117,35.932,6.682,41.92,9.964
		c4.227,2.344,7.398,8.088,9.864,16.997c3.875,14.887,7.398,19.341,20.784,26.022
		C3191.849,6433.24,3223.201,6437.577,3231.656,6432.419z"/>
</g>
</svg>
